<?xml version="1.0" encoding="utf-8"?>
<!-- Generator: Adobe Illustrator 19.1.0, SVG Export Plug-In . SVG Version: 6.00 Build 0)  -->
<svg version="1.1" id="Ebene_1" xmlns="http://www.w3.org/2000/svg" xmlns:xlink="http://www.w3.org/1999/xlink" x="0px" y="0px"
	 viewBox="0 0 409.1 156.9" style="enable-background:new 0 0 409.1 156.9;" xml:space="preserve">
<style type="text/css">
	.st0{fill:#4A0B2D;}
</style>
<g>
	<path class="st0" d="M408.8,45.5c-0.8-2.2-2.9-4-6.1-4.9c0,0,0,0,0,0c-1.3-0.4-2.6-0.5-4-0.6L398,40c-0.7-0.1-1.5,0-2,0l-0.6-9.4
		c0.3-0.6,0.5-1.2,0.8-1.9c0.7-1.6,1.6-3.4,2.1-5.3c1-3.4-0.2-6.7-3.3-9.2c-3.7-3-9.9-3.3-13.8-0.6c-3.1,2.1-5.8,4-8.1,6.4
		c-7.7,8.2-16.4,17.4-24.5,26.9c-4.9,5.7-10.9,9.1-18.3,10.2c-10.7,1.7-21-0.5-28.8-2.6c-2.6-0.7-5.4-2.1-7.7-3.8
		c-6.6-5-8.2-9.3-5.9-15.7c1.4-3.7,2.2-8,2.8-13.8c0.7-7.4-2.2-13.7-8.8-18.5c-3.6-2.7-7.8-3.4-11.3-2c-3.5,1.4-6,4.7-6.8,9
		c-0.3,1.6-0.4,3.3-0.4,5c0,1-0.1,2-0.2,3c-0.2,1.8-0.3,3.7-0.5,5.5c-0.4,4.6-0.7,9.3-1.6,13.9c-1.2,6.3-4,11.8-8.7,16.8
		c-4.6,4.9-8.6,10.4-13.1,17.1c-3.8,5.7-8.2,13.3-8.3,21.8c0,5.8-2,10.3-6.8,15.1c-0.4,0.4-0.7,0.8-1.1,1.1c0-0.1,0.1-0.2,0.1-0.4
		c0.1-0.9-0.4-1.5-1.2-1.7c-4-0.7-7.4,0.4-9.7,3.1c-2.5,3-3.2,7.4-1.7,11.9c2.3,7,8.4,15.1,17.9,23.9c8.2,7.5,15.4,11.2,21.9,11.2
		c0.9,0,1.9-0.1,2.8-0.2c4.1-0.7,7.6-3.3,8.9-6.6c1.1-2.7,0.6-5.5-1.3-8c0,0-0.1-0.1-0.1-0.1l0.6-0.9c2.1-3.2,4.2-6.5,6.1-9.9
		c1.2-2.1,2.8-3.3,5.4-3.9l3.1-0.7c7.5-1.8,15.2-3.7,22.7-5.9c9.7-2.9,19.4-6.2,28.3-9.3c3.2-1.1,5.9-2.6,7.9-4.3
		c6.3-5.5,11.9-10.5,17-16c4-4.4,8.6-8.9,14.6-11.8c1.7-0.8,3.3-1.8,4.9-2.7l1.2-0.7c2.4-1.3,4.7-2.7,7.1-4
		c6.1-3.4,12.3-6.9,18.3-10.7c3.5-2.2,6.8-5.3,9.3-8.6C409,50,409.5,47.6,408.8,45.5z M377.2,67.9c1.1-1.2,2.1-2.3,3.2-3.5
		c5.2-5.5,9.2-10.9,12.2-16.6c2-3.8,5.8-5,9.9-3.2c1.3,0.6,2.1,1.4,2.4,2.2c0.2,0.8,0,1.6-0.6,2.6c-1.3,1.9-3.3,4.6-5.8,6.3
		c-5.3,3.5-10.8,6.8-16.1,10c-2,1.2-4,2.4-6,3.6l-0.3-0.3L377.2,67.9z M373.2,65c2.3-3.6,4.6-7.1,6.8-10.7c0.8-1.2,1.5-2.6,2.1-4.2
		c1.7-4.4,1-8.4-2-11.9c1.8-2.9,4.5-4.6,8.2-5c1-0.1,2.4-0.1,3.1,0.7c0.7,0.8,0.6,2.1,0.3,3c-1,4.3-2.2,7.6-3.6,10.3
		c-3.4,6.6-8.3,12.5-15.7,18.8L373.2,65z M219.6,113.2l-0.8,1c-0.5,0.6-0.8,1.3-1.2,1.8c-0.1,0.2-0.3,0.5-0.4,0.7
		c-0.1,0.2-0.1,0.4,0,0.6c0.6,0.9,1.3,1.3,1.9,1.3c0.8,0,1.5-0.6,2-1.2c1.2-1.4,2.5-2.8,3.7-4.3c2.8-3.2,5.7-6.5,8.5-9.9
		c0.7-0.9,1.2-2.3,1.1-3.7c-0.3-8.1,1.9-16.1,6.8-24.5c4-6.8,9.2-13.5,15.8-20.6c2.2-2.4,3.9-5,5.2-8.3c3.3-8,4.8-16.8,4.8-27.6
		c0-2.7,0-5.9,0.7-8.7c0.7-2.9,2.4-4.9,4.6-5.7c2.3-0.8,5.1-0.1,7.5,2c5.5,4.6,7.7,10.5,6.5,17.3c-0.9,4.9-1.8,8.8-3,12.1
		c-1.6,4.6-0.9,8.8,2,12.3c2.3,2.7,5.2,5.3,8.4,7.4c6.1,4.1,13.2,4.9,20,5.7l2,0.2c6.3,0.8,12.6,0.4,18.5-0.2l-7.5,6.1
		c-0.2,0.1-0.2,0.4-0.2,0.6c0.1,0.2,0.3,0.3,0.5,0.3c1.8-0.1,3.4-0.6,5.2-1.6c5.1-3,9.9-6.9,14.1-11.6c2.5-2.8,5.1-5.8,7.5-8.6
		c4.1-4.7,8.3-9.5,12.6-14.1c4.4-4.7,9.7-9.5,16-14.8c3.3-2.7,7.2-2.1,9.7-0.2c2,1.5,2.5,3.4,1.8,6.1c-1,3.6-2.6,5.3-5.1,5.5
		c-3.8,0.2-7.1,1.4-9.7,3.8c-2.2,2-4.4,3.4-7.4,3.3c-1.5-0.1-3.1,1-4.5,2c-2.7,2-4.7,3.7-6.5,5.4c-4.9,4.9-9.8,10.1-14.6,15l-1,1
		c-2.6,2.8-5.3,5.5-7.9,8.3l-3.5,3.8c-0.2,0.2-0.2,0.5,0,0.7l0.6,0.8c0.2,0.2,0.5,0.3,0.7,0.1c0.6-0.4,1.2-0.9,1.8-1.3
		c1.3-0.9,2.7-1.9,3.9-3c2.4-2.3,4.7-4.6,7-6.9c2.2-2.2,4.4-4.4,6.6-6.5c4.6-4.4,9.9-9.5,15.4-14.2c2.2-1.9,4.4-2.1,6.6-0.4
		c2.1,1.6,2.7,3.7,1.8,6.5c-0.7,2.1-1.7,4.2-2.9,6.2c-8.5,14-19.3,27.3-33.8,42c-7.5,7.6-15.4,12.5-24,15l-4.6,1.3
		c-9.4,2.7-19.1,5.5-28.6,8.1c-5.1,1.4-10.2,2.8-15.6,4.2c-2.4,0.6-4.7,1.2-7.1,1.9c-0.1,0-0.3,0.1-0.3,0.3c-0.1,0.1-0.1,0.3,0,0.4
		l1.4,3.9l-2.2,3.5c-2.1,3.4-4.2,6.8-6.4,10.2l-0.1,0.2c-0.5,0.7-1,1.5-0.7,2.4c0.2,0.7,0.8,1.3,1.9,1.9c0.2,0.1,0.5,0,0.6-0.2
		c0.3-0.5,0.7-1,1-1.4c0.5-0.8,1.1-1.5,1.6-2.3c1.1,1.9,1.3,3.5,0.6,4.8c-1.6,2.9-7.2,4.1-9.8,3.9c-2.4-0.1-5.3-1-8.5-2.7
		c-3.8-2-7.6-4.9-11.9-9.1c-3.4-3.4-6.7-7.1-9.6-11.2c-1-1.3-1.8-2.5-2.5-3.7c-0.4-0.7-0.8-1.3-1.3-2c-1.4-2-1.9-4-1.6-6
		c0.5-2.9,3-5.9,7.3-9c0.3,0,0.6-0.1,0.8-0.2C221.4,111,220.5,112.1,219.6,113.2z"/>
	<path class="st0" d="M259.3,88.5c0.1,0,0.2,0,0.3-0.1c11.2-6.3,20.2-9.5,29.3-10.2c7.4-0.6,14.8-0.7,22-0.8
		c3.1-0.1,6.2-0.1,9.3-0.2c0.2,0,0.4-0.2,0.5-0.4c0.1-0.2,0-0.5-0.2-0.6c-14.6-8.2-51.9-1.2-61.5,11.4c-0.1,0.2-0.1,0.5,0,0.6
		C259,88.4,259.1,88.5,259.3,88.5z"/>
	<path class="st0" d="M88.7,76.2c-0.2,0.1-0.3,0.3-0.2,0.6c0.1,0.2,0.3,0.4,0.5,0.4c3,0.1,6.1,0.1,9.3,0.2c7.2,0.1,14.7,0.2,22,0.8
		c9.1,0.7,18.1,3.9,29.3,10.2c0.1,0,0.2,0.1,0.3,0.1c0.1,0,0.3-0.1,0.4-0.2c0.2-0.2,0.2-0.5,0-0.6C140.7,75,103.3,68.1,88.7,76.2z"
		/>
	<path class="st0" d="M194,108.6c-2.2-1.8-5.2-2.5-8.4-1.7l0,0c-0.4,0.1-0.8,0.4-1,0.7c-4.6-4.7-6.6-9.2-6.6-14.9
		c0-8.6-4.4-16.2-8.2-21.8c-4.5-6.7-8.5-12.1-13.1-17.1c-4.7-5-7.6-10.5-8.7-16.8c-0.8-4.6-1.2-9.3-1.6-13.9
		c-0.1-1.8-0.3-3.7-0.5-5.5c-0.1-1-0.1-2-0.2-3c-0.1-1.6-0.1-3.3-0.4-5c-0.8-4.4-3.3-7.6-6.8-9c-3.6-1.4-7.7-0.7-11.3,2
		c-6.5,4.9-9.5,11.1-8.8,18.5c0.6,5.8,1.4,10,2.8,13.8c2.3,6.5,0.7,10.7-5.9,15.7c-2.3,1.8-5.1,3.1-7.7,3.8
		c-7.8,2.1-18.1,4.3-28.8,2.6c-7.4-1.2-13.4-4.5-18.3-10.2c-8.1-9.5-16.8-18.7-24.5-26.9c-2.3-2.4-5-4.3-8.1-6.4
		c-3.9-2.7-10.1-2.4-13.8,0.6c-3.1,2.5-4.3,5.8-3.3,9.2c0.6,1.9,1.4,3.7,2.1,5.3c0.3,0.6,0.6,1.3,0.8,1.9L13.1,40
		c-0.5,0-1.3-0.1-2,0L10.4,40c-1.3,0.1-2.7,0.2-4,0.6c-3.2,0.9-5.3,2.7-6.1,4.9c-0.7,2.1-0.2,4.5,1.6,6.9c2.4,3.3,5.7,6.4,9.3,8.6
		c6,3.8,12.3,7.3,18.3,10.7c2.4,1.3,4.7,2.7,7.1,4l1.2,0.7c1.6,0.9,3.3,1.9,4.9,2.7c6,2.9,10.5,7.4,14.6,11.8
		c5.1,5.6,10.7,10.5,17,16c2,1.7,4.6,3.2,7.9,4.3c9,3.2,18.7,6.5,28.3,9.3c7.5,2.2,15.2,4.1,22.7,5.9l3,0.7c2.7,0.6,4.2,1.8,5.4,3.9
		c1.9,3.4,4,6.7,6.1,9.9l0.8,1.2c-2,2.7-2.7,6-1.7,8.8c0.9,2.6,3.2,4.5,6.3,5.3c1,0.2,2,0.4,3,0.4c9.2,0,19.8-8.9,25.1-13.4
		c10.7-9,16.3-17.5,16.6-25.2C198,114.2,196.6,110.7,194,108.6z M193.5,111.3c2.8,3.9-0.7,13.4-2.6,16.6c-2.2,3.7-5.4,7.4-9.8,11.4
		c-3.3,2.9-7,5.7-11,8.2c-1.7,1.1-3.3,2.1-4.9,2.9l-4.5,2c-2.5,1.2-4.5,1.4-6,0.5c-1.5-0.9-2.5-2.9-3-6.1c0.1,0.1,0.2,0.2,0.3,0.4
		l1,1.4c0.1,0.2,0.4,0.3,0.6,0.2c1.1-0.6,1.8-1.2,2-1.9c0.2-0.9-0.3-1.7-0.7-2.4l-0.1-0.2c-2.1-3.4-4.3-6.8-6.4-10.2l-2.2-3.5
		l1.4-3.9c0.1-0.1,0-0.3,0-0.4c-0.1-0.1-0.2-0.2-0.3-0.3c-2.4-0.6-4.8-1.3-7.1-1.9c-5.4-1.4-10.4-2.7-15.6-4.2
		c-9.5-2.6-19.2-5.4-28.5-8.1l-4.6-1.3c-8.6-2.5-16.5-7.4-24-15c-14.5-14.7-25.2-28-33.8-42c-1.2-2-2.2-4.1-2.9-6.2
		c-0.9-2.8-0.3-4.9,1.8-6.5c2.2-1.6,4.4-1.5,6.6,0.4c5.5,4.7,10.8,9.8,15.4,14.2c2.2,2.1,4.5,4.4,6.6,6.5c2.3,2.3,4.6,4.6,7,6.9
		c1.2,1.1,2.6,2.1,3.9,3c0.6,0.4,1.2,0.8,1.8,1.3c0.2,0.2,0.5,0.1,0.7-0.1l0.6-0.8c0.2-0.2,0.1-0.5,0-0.7L71.5,68
		c-2.6-2.8-5.3-5.6-7.9-8.4l-1-1c-4.7-5-9.7-10.1-14.6-15c-1.7-1.7-3.8-3.5-6.5-5.4c-1.4-1-3-2-4.5-2c-3,0.1-5.2-1.2-7.4-3.3
		c-2.6-2.3-5.8-3.6-9.7-3.8c-2.5-0.1-4.1-1.9-5.1-5.5c-0.8-2.7-0.2-4.6,1.8-6.1c2.5-1.9,6.4-2.6,9.7,0.2c6.3,5.3,11.5,10.1,16,14.8
		c4.3,4.6,8.5,9.4,12.6,14.1c2.5,2.8,5,5.7,7.5,8.6c4.2,4.7,9,8.6,14.1,11.6c1.8,1,3.4,1.5,5.2,1.6c0.2,0,0.4-0.1,0.5-0.3
		c0.1-0.2,0-0.4-0.2-0.6l-7.5-6.1c5.9,0.6,12.1,0.9,18.5,0.2l2-0.2c6.9-0.8,14-1.6,20-5.7c3.2-2.1,6.1-4.7,8.4-7.4
		c3-3.5,3.6-7.7,2-12.3c-1.2-3.4-2.1-7.2-3-12.1c-1.2-6.9,1-12.7,6.5-17.3c2.4-2,5.1-2.7,7.5-2c2.3,0.7,3.9,2.8,4.6,5.7
		c0.7,2.8,0.7,5.9,0.7,8.7c0,10.8,1.5,19.6,4.8,27.6c1.3,3.3,3,6,5.2,8.3c6.6,7.1,11.8,13.8,15.8,20.6c4.9,8.4,7.2,16.4,6.8,24.5
		c-0.1,1.3,0.4,2.8,1.1,3.7c2.8,3.3,5.7,6.6,8.5,9.8c1.2,1.4,2.5,2.8,3.7,4.3c0.6,0.7,1.2,1.3,2,1.2c0.7,0,1.3-0.5,1.9-1.3
		c0.1-0.2,0.1-0.4,0-0.6c-0.1-0.2-0.3-0.5-0.4-0.7c-0.3-0.6-0.7-1.3-1.2-1.8c-1.1-1.3-2.3-2.8-3.6-4.3
		C190,109.2,192.3,109.7,193.5,111.3z M17.6,33.9c0.7-0.8,2.1-0.8,3.1-0.7c3.7,0.4,6.4,2.1,8.2,5c-3,3.5-3.7,7.5-2,11.9
		c0.6,1.6,1.3,3,2.1,4.2c2.3,3.6,4.5,7.2,6.8,10.7l0.7,1c-7.4-6.4-12.3-12.3-15.7-18.8c-1.4-2.7-2.6-6-3.6-10.3
		C17.1,36,16.9,34.7,17.6,33.9z M33.1,69.1l-0.3,0.3c-2-1.2-4-2.4-6-3.6c-5.3-3.2-10.9-6.5-16.1-10c-2.5-1.7-4.5-4.4-5.8-6.3
		C4.2,48.6,4,47.7,4.2,47c0.2-0.9,1.1-1.7,2.4-2.2c1.3-0.6,2.5-0.8,3.7-0.8c2.6,0,4.9,1.4,6.3,4c2.9,5.6,6.9,11,12.2,16.6
		c1.1,1.1,2.2,2.3,3.2,3.5L33.1,69.1z"/>
</g>
<g>
</g>
<g>
</g>
<g>
</g>
<g>
</g>
<g>
</g>
<g>
</g>
</svg>
