<?xml version="1.0" encoding="utf-8"?>
<!-- Generator: Adobe Illustrator 19.1.0, SVG Export Plug-In . SVG Version: 6.00 Build 0)  -->
<svg version="1.1" id="Ebene_1" xmlns="http://www.w3.org/2000/svg" xmlns:xlink="http://www.w3.org/1999/xlink" x="0px" y="0px"
	 viewBox="0 0 222.2 184.5" style="enable-background:new 0 0 222.2 184.5;" xml:space="preserve">
<style type="text/css">
	.st0{fill:#4A0B2D;}
</style>
<g>
	<g>
		<path class="st0" d="M14,150.1c0.1-0.3,0.3-0.5,0.6-0.7c0.3-0.2,0.6-0.3,1-0.3h6.7c0.3,0,0.6,0.1,0.9,0.3c0.3,0.2,0.5,0.5,0.6,0.7
			l13.9,32.4c0.1,0.3,0.1,0.6-0.1,0.9c-0.2,0.3-0.5,0.5-1,0.5h-8.1c-0.3,0-0.7-0.1-1-0.3c-0.3-0.2-0.5-0.5-0.7-0.7l-1.3-2.9
			c-0.2-0.3-0.4-0.5-0.7-0.7c-0.3-0.2-0.6-0.3-0.9-0.3H13.9c-0.4,0-0.7,0.1-1,0.3c-0.3,0.2-0.5,0.5-0.6,0.7l-1.3,2.9
			c-0.1,0.3-0.3,0.5-0.6,0.7c-0.3,0.2-0.6,0.3-0.9,0.3H1.2c-0.2,0-0.3,0-0.5-0.1c-0.2-0.1-0.3-0.2-0.4-0.3C0.1,183.3,0,183.2,0,183
			c0-0.2,0-0.4,0.1-0.7L14,150.1z M16.8,170.8H21c0.3,0,0.5-0.1,0.7-0.3c0.1-0.2,0.1-0.5,0-0.7c-0.3-0.8-0.7-1.7-1.1-2.8
			c-0.4-1.1-0.9-2.1-1.2-3c-0.1-0.3-0.3-0.4-0.4-0.4c-0.2,0-0.3,0.1-0.4,0.4l-2.4,5.8c-0.1,0.3-0.1,0.5,0,0.7
			C16.2,170.7,16.4,170.8,16.8,170.8z"/>
		<path class="st0" d="M72.9,174.6c-0.9,1.5-1.9,2.8-3,4.1c-1.1,1.2-2.4,2.3-3.7,3.1c-1.4,0.9-2.9,1.5-4.6,2
			c-1.7,0.5-3.5,0.7-5.6,0.7c-2.5,0-4.9-0.5-7.1-1.4c-2.2-1-4.2-2.2-5.8-3.9c-1.7-1.6-3-3.5-3.9-5.7s-1.4-4.5-1.4-7s0.5-4.8,1.4-7
			s2.3-4.1,3.9-5.7c1.7-1.6,3.6-2.9,5.8-3.9c2.2-1,4.6-1.4,7.1-1.4c2.1,0,4,0.2,5.7,0.7c1.7,0.5,3.2,1.1,4.6,2
			c1.4,0.9,2.6,1.9,3.7,3.1c1.1,1.2,2.1,2.6,3,4c0.2,0.3,0.2,0.5,0.1,0.8c-0.1,0.3-0.3,0.5-0.6,0.6l-6.8,2.7c-0.3,0.1-0.6,0.1-1,0
			c-0.3-0.1-0.6-0.3-0.7-0.6c-0.9-1.5-2-2.6-3.3-3.4c-1.3-0.8-2.9-1.2-4.7-1.2c-1.2,0-2.3,0.3-3.4,0.8c-1.1,0.5-2,1.2-2.8,2
			c-0.8,0.8-1.4,1.8-1.9,2.9c-0.4,1.1-0.7,2.3-0.7,3.4c0,1.2,0.2,2.4,0.7,3.5c0.4,1.1,1.1,2.1,1.9,2.9c0.8,0.8,1.7,1.5,2.8,2
			c1.1,0.5,2.2,0.8,3.4,0.8c1.7,0,3.3-0.4,4.7-1.3c1.4-0.8,2.5-1.9,3.4-3.3c0.2-0.3,0.4-0.4,0.7-0.6c0.3-0.1,0.6-0.1,0.9,0l6.8,2.7
			c0.3,0.1,0.5,0.3,0.6,0.6C73.1,174,73.1,174.3,72.9,174.6z"/>
		<path class="st0" d="M99.1,157.7h-6.7c-0.3,0-0.6,0.1-0.8,0.3c-0.2,0.2-0.3,0.5-0.3,0.8v23.8c0,0.3-0.1,0.6-0.3,0.8
			c-0.2,0.2-0.5,0.3-0.8,0.3H83c-0.3,0-0.6-0.1-0.8-0.3c-0.2-0.2-0.3-0.5-0.3-0.8v-23.8c0-0.3-0.1-0.6-0.3-0.8
			c-0.2-0.2-0.5-0.3-0.8-0.3h-6.8c-0.3,0-0.6-0.1-0.8-0.3c-0.2-0.2-0.3-0.5-0.3-0.8v-6.5c0-0.3,0.1-0.6,0.3-0.8
			c0.2-0.2,0.5-0.3,0.8-0.3h25.2c0.3,0,0.6,0.1,0.8,0.3c0.2,0.2,0.3,0.5,0.3,0.8v6.5c0,0.3-0.1,0.6-0.3,0.8
			C99.7,157.6,99.4,157.7,99.1,157.7z"/>
		<path class="st0" d="M112.6,183.8h-7.2c-0.3,0-0.6-0.1-0.8-0.3c-0.2-0.2-0.3-0.5-0.3-0.8v-32.5c0-0.3,0.1-0.6,0.3-0.8
			c0.2-0.2,0.5-0.3,0.8-0.3h7.2c0.3,0,0.6,0.1,0.8,0.3c0.2,0.2,0.3,0.5,0.3,0.8v32.5c0,0.3-0.1,0.6-0.3,0.8
			C113.1,183.7,112.9,183.8,112.6,183.8z"/>
		<path class="st0" d="M131.7,182.8l-14.4-32.4c-0.2-0.3-0.2-0.7,0-1c0.1-0.3,0.4-0.4,0.8-0.4h7.8c0.3,0,0.6,0.1,0.9,0.3
			c0.3,0.2,0.5,0.5,0.7,0.7l8.4,19.2c0.2,0.3,0.4,0.4,0.6,0.4c0.3,0,0.5-0.1,0.6-0.4l8.3-19.2c0.2-0.3,0.4-0.5,0.7-0.7
			c0.3-0.2,0.6-0.3,0.9-0.3h7.9c0.3,0,0.6,0.1,0.8,0.4c0.2,0.3,0.2,0.5,0,0.8l-14.5,32.6c-0.2,0.3-0.4,0.5-0.7,0.7
			c-0.3,0.2-0.6,0.3-0.9,0.3h-6.3c-0.3,0-0.6-0.1-0.9-0.3C132.1,183.3,131.9,183.1,131.7,182.8z"/>
		<path class="st0" d="M169,158.9v2c0,0.3,0.1,0.6,0.3,0.8c0.2,0.2,0.5,0.3,0.8,0.3h12.9c0.3,0,0.6,0.1,0.8,0.3
			c0.2,0.2,0.3,0.5,0.3,0.8v6.6c0,0.3-0.1,0.6-0.3,0.8c-0.2,0.2-0.5,0.3-0.8,0.3h-12.9c-0.3,0-0.6,0.1-0.8,0.3
			c-0.2,0.2-0.3,0.5-0.3,0.8v1.8c0,0.3,0.1,0.6,0.3,0.8c0.2,0.2,0.5,0.3,0.8,0.3H185c0.3,0,0.6,0.1,0.8,0.3c0.2,0.2,0.3,0.5,0.3,0.8
			v6.6c0,0.3-0.1,0.6-0.3,0.8c-0.2,0.2-0.5,0.3-0.8,0.3h-24.3c-0.3,0-0.6-0.1-0.8-0.3c-0.2-0.2-0.3-0.5-0.3-0.8v-32.6
			c0-0.3,0.1-0.6,0.3-0.8c0.2-0.2,0.5-0.3,0.8-0.3H185c0.3,0,0.6,0.1,0.8,0.3c0.2,0.2,0.3,0.5,0.3,0.8v6.5c0,0.3-0.1,0.6-0.3,0.8
			c-0.2,0.2-0.5,0.3-0.8,0.3h-14.8c-0.3,0-0.6,0.1-0.8,0.3C169.1,158.3,169,158.6,169,158.9z"/>
		<path class="st0" d="M221.9,150.4L210,169.6c-0.2,0.3-0.3,0.6-0.4,1c-0.1,0.4-0.2,0.8-0.2,1.1v10.9c0,0.3-0.1,0.6-0.3,0.8
			c-0.2,0.2-0.5,0.3-0.8,0.3h-7.2c-0.3,0-0.6-0.1-0.8-0.3c-0.2-0.2-0.3-0.5-0.3-0.8v-10.9c0-0.3-0.1-0.7-0.2-1.1
			c-0.1-0.4-0.2-0.8-0.4-1c-1.9-3.3-3.9-6.5-5.8-9.6c-2-3.1-4-6.4-5.9-9.7c-0.2-0.3-0.2-0.6-0.1-0.9c0.1-0.3,0.3-0.5,0.6-0.5h8.5
			c0.3,0,0.6,0.1,1,0.3s0.6,0.4,0.7,0.7l5.8,10.2c0.2,0.3,0.3,0.4,0.6,0.4s0.4-0.1,0.6-0.4l5.8-10.2c0.2-0.3,0.4-0.5,0.7-0.7
			s0.7-0.3,1-0.3h8.6c0.3,0,0.5,0.1,0.7,0.3C222.3,149.6,222.2,149.9,221.9,150.4z"/>
	</g>
	<g>
		<g>
			<g>
				<path class="st0" d="M51,56.2c11,2.7,21.4,5.9,31.2,11.8C78.8,62,57.6,53.9,51,56.2z"/>
			</g>
			<g>
				<path class="st0" d="M100.3,100.3c-3.8-1.9-7.7-3.4-11.6-5.1c-0.9-0.4-1.8-0.8-2.8-1.1c-0.9-0.3-1.6-0.7-2.1-1.2
					c0.1-0.4,0.3-0.8,0.5-1.2c1.7-3.7,3.5-7.4,5.6-10.9c3-5.1,6.6-9.8,9.4-14.9c7-12.8,9.9-26.6,9.2-41.1c-0.3-6-1.1-11.9-1.9-17.9
					c-0.2-1.5-0.9-3-1.8-4.2c-2.5-3.4-5.8-3.3-8.2,0.2C95.1,5,94,7.6,94,10.4c0,3.4-1.7,6.1-3.1,9c-2.4,4.7-5.9,8.1-10.3,10.9
					c-3.8,2.4-7.2,5.6-10.9,8.3c-1.4,1-3,1.9-4.6,2.5c-4.9,1.8-9.9,3.3-14.8,5.3c-2.6,1.1-5,2.9-7.3,4.7c-3,2.3-4.6,5.4-5.3,9.3
					c-2.3,12.7-4.6,25.4-5.5,38.2c-0.1,1.5-0.7,2.7-1.7,3.8c-5.5,6.3-10.9,12.6-16.3,18.9c-0.4,0.5-0.7,1.1-0.7,2
					c1.9-1.7,3.8-3.3,5.5-5.1c3.6-3.8,7-7.7,10.6-11.5c0.7-0.7,1.8-1.2,2.6-1.7c0.2,0.1,0.4,0.2,0.6,0.4c0.5-2.4,1.2-4.7,1.4-7.1
					c1.2-13,3.3-25.8,5.8-38.5c0.5-2.3,1.4-4.2,3.1-5.8c1.5-1.3,3-2.7,4.6-3.8c4.4-2.7,9.3-4.2,14.5-5.2c-1.7,1.3-3.3,2.6-5.2,4.1
					c2.6-0.1,3.8-0.5,6-2.2c2.4-1.8,4.6-3.8,7-5.7c3.7-2.9,7.3-5.8,11-8.6c0.6-0.4,1.3-0.7,2.6-1.5c-5.1,7.8-10.5,14.3-16.5,20.5
					c2.2-0.1,3.7-1.4,5-2.8c3.3-3.6,6.6-7.2,9.5-11.1c3.1-4.2,5.7-8.8,8.5-13.1c0.7-1.1,1.5-2.2,2.5-3.1
					c-1.3,12.6-4.7,24.5-10.6,35.9c0.8-1,1.7-2,2.4-3.1c5-7.4,7.7-15.8,9.2-24.5c1.2-6.5,1.6-13.2,2.5-19.8c0.3-2,1.1-4.1,2.2-5.8
					c1.3-2.3,3.2-2.2,4.8-0.1c0.6,0.9,1.2,2,1.4,3c3.1,17.2,3.1,34.2-3.7,50.8c-3,7.4-7.4,13.9-11.7,20.5c-1.6,2.5-3.1,5.1-4.5,7.7
					c-0.7,1.3-1.5,2.5-2.1,3.9c-0.2,0.6-1.3,3.3-0.9,3.8c0.8,1.1,2.1,1.9,4,2.7c4.1,1.7,8.3,3.2,12.3,5.1c5,2.4,8.1,6.1,7.8,12
					c-0.1,2.5-1.2,3.5-3.6,2.5c-2.1-0.8-4-2-6-2.9c-2.1-1-4.2-2.1-6.4-2.9c-3.2-1.1-6.6-1-9.8-0.1c-4.1,1.2-8.2,2.5-12.5,2.9
					c-2.2,0.2-4.4,0.1-6.6-0.3c-2.2-0.4-4.3-1.2-6.5-1.1c-0.3,0-1.6,0.3-1.9,0.2c1.1,0.7,1.8,1.2,2.7,1.8c-3,6.5-6.8,12.7-8.1,19.9
					c0.4-2.3,2.7-5.2,3.8-7.3c1.3-2.5,2.6-5,3.9-7.5c0.6-1.1,1.1-2.6,1.9-3.7c0.9-1.1,0.9-0.9,2.2-0.7c5.8,0.9,13.5,1.5,19-1
					c4.9-2.2,9.7-2.2,14.5,0.2c2.5,1.3,4.9,2.6,7.4,3.8c1.1,0.5,2.3,0.9,3.5,1.1c2.9,0.4,4.8-1.2,4.9-4
					C108.2,108.1,106,103.2,100.3,100.3z"/>
			</g>
		</g>
		<g>
			<g>
				<path class="st0" d="M172.2,56.2c-11,2.7-21.4,5.9-31.2,11.8C144.4,62,165.6,53.9,172.2,56.2z"/>
			</g>
			<g>
				<path class="st0" d="M122.9,100.3c3.8-1.9,7.7-3.4,11.6-5.1c0.9-0.4,1.8-0.8,2.8-1.1c0.9-0.3,1.6-0.7,2.1-1.2
					c-0.1-0.4-0.3-0.8-0.5-1.2c-1.7-3.7-3.5-7.4-5.6-10.9c-3-5.1-6.6-9.8-9.4-14.9c-7-12.8-9.9-26.6-9.2-41.1
					c0.3-6,1.1-11.9,1.9-17.9c0.2-1.5,0.9-3,1.8-4.2c2.5-3.4,5.8-3.3,8.2,0.2c1.6,2.3,2.7,4.9,2.7,7.8c0,3.4,1.7,6.1,3.1,9
					c2.4,4.7,5.9,8.1,10.3,10.9c3.8,2.4,7.2,5.6,10.9,8.3c1.4,1,3,1.9,4.6,2.5c4.9,1.8,9.9,3.3,14.8,5.3c2.6,1.1,5,2.9,7.3,4.7
					c3,2.3,4.6,5.4,5.3,9.3c2.3,12.7,4.6,25.4,5.5,38.2c0.1,1.5,0.7,2.7,1.7,3.8c5.5,6.3,10.9,12.6,16.3,18.9c0.4,0.5,0.7,1.1,0.7,2
					c-1.9-1.7-3.8-3.3-5.5-5.1c-3.6-3.8-7-7.7-10.6-11.5c-0.7-0.7-1.8-1.2-2.6-1.7c-0.2,0.1-0.4,0.2-0.6,0.4
					c-0.5-2.4-1.2-4.7-1.4-7.1c-1.2-13-3.3-25.8-5.8-38.5c-0.5-2.3-1.4-4.2-3.1-5.8c-1.5-1.3-3-2.7-4.6-3.8
					c-4.4-2.7-9.3-4.2-14.5-5.2c1.7,1.3,3.3,2.6,5.2,4.1c-2.6-0.1-3.8-0.5-6-2.2c-2.4-1.8-4.6-3.8-7-5.7c-3.7-2.9-7.3-5.8-11-8.6
					c-0.6-0.4-1.3-0.7-2.6-1.5c5.1,7.8,10.5,14.3,16.5,20.5c-2.2-0.1-3.7-1.4-5-2.8c-3.3-3.6-6.6-7.2-9.5-11.1
					c-3.1-4.2-5.7-8.8-8.5-13.1c-0.7-1.1-1.5-2.2-2.5-3.1c1.3,12.6,4.7,24.5,10.6,35.9c-0.8-1-1.7-2-2.4-3.1
					c-5-7.4-7.7-15.8-9.2-24.5C128.4,23,128,16.3,127,9.7c-0.3-2-1.1-4.1-2.2-5.8c-1.3-2.3-3.2-2.2-4.8-0.1c-0.6,0.9-1.2,2-1.4,3
					c-3.1,17.2-3.1,34.2,3.7,50.8c3,7.4,7.4,13.9,11.7,20.5c1.6,2.5,3.1,5.1,4.5,7.7c0.7,1.3,1.5,2.5,2.1,3.9
					c0.2,0.6,1.3,3.3,0.9,3.8c-0.8,1.1-2.1,1.9-4,2.7c-4.1,1.7-8.3,3.2-12.3,5.1c-5,2.4-8.1,6.1-7.8,12c0.1,2.5,1.2,3.5,3.6,2.5
					c2.1-0.8,4-2,6-2.9c2.1-1,4.2-2.1,6.4-2.9c3.2-1.1,6.6-1,9.8-0.1c4.1,1.2,8.2,2.5,12.5,2.9c2.2,0.2,4.4,0.1,6.6-0.3
					c2.2-0.4,4.3-1.2,6.5-1.1c0.3,0,1.6,0.3,1.9,0.2c-1.1,0.7-1.8,1.2-2.7,1.8c3,6.5,6.8,12.7,8.1,19.9c-0.4-2.3-2.7-5.2-3.8-7.3
					c-1.3-2.5-2.6-5-3.9-7.5c-0.6-1.1-1.1-2.6-1.9-3.7c-0.9-1.1-0.9-0.9-2.2-0.7c-5.8,0.9-13.5,1.5-19-1c-4.9-2.2-9.7-2.2-14.5,0.2
					c-2.5,1.3-4.9,2.6-7.4,3.8c-1.1,0.5-2.3,0.9-3.5,1.1c-2.9,0.4-4.8-1.2-4.9-4C115,108.1,117.2,103.2,122.9,100.3z"/>
			</g>
		</g>
	</g>
</g>
<g>
</g>
<g>
</g>
<g>
</g>
<g>
</g>
<g>
</g>
<g>
</g>
</svg>
