<?xml version="1.0" encoding="utf-8"?>
<!-- Generator: Adobe Illustrator 19.1.0, SVG Export Plug-In . SVG Version: 6.00 Build 0)  -->
<svg version="1.1" id="Ebene_1" xmlns="http://www.w3.org/2000/svg" xmlns:xlink="http://www.w3.org/1999/xlink" x="0px" y="0px"
	 viewBox="0 0 409.1 156.9" style="enable-background:new 0 0 409.1 156.9;" xml:space="preserve">
<style type="text/css">
	.st0{fill:#4A0B2D;}
</style>
<g>
	<path class="st0" d="M375.5,24.3l-10-16.6c-0.1-0.1-0.1-0.2-0.2-0.2l-14.4-6.6l-0.7-0.4c0-0.1-0.1-0.1-0.1-0.2
		c-0.1-0.1-0.2-0.2-0.3-0.3c-0.1,0-0.3,0-0.4,0L232.7,63c-7.2,3.9-14.5,7.8-21.7,11.8c-6.7,3.6-13.4,7.2-20,10.9
		c-3.5,1.9-6.9,3.7-10.4,5.6c-6.6,3.6-13.4,7.2-20.1,10.9c0,0-0.1,0.1-0.1,0.1c0,0,0,0-0.1,0.1c0,0-0.1,0-0.1,0.1
		c-0.4,0.3-0.6,0.8-0.7,1c-0.6,1.3-1.3,3-1.6,4.9c-0.3,2.6,0.8,5.2,2.9,6.9c1,0.8,2.2,1.4,3.5,1.7c0.3,0.1,1.8,0.1,1.9,0.3
		c0.2,0.4-0.9,1.7-1.1,2.1c-0.3,0.8-0.6,1.6-0.7,2.4c-0.4,2.9,0.8,5.8,3.1,7.4c0.1,0.1,0.3,0.2,0.4,0.3c0.3,0.2,0.6,0.4,0.9,0.6
		c0.1,0.1,0.3,0.2,0.4,0.2c0.3,0.2,0.6,0.3,0.9,0.5l0.4,0.2c0.3,0.1,0.6,0.3,0.9,0.4c0.9,0.3,1.8,0.6,2.9,0.9l0.4,0.1l-0.2,0.7
		c-0.1,0.4-0.1,0.9-0.1,1.3c0,0.1,0,0.2,0,0.3c0,0.3,0,0.6,0,0.9l0.2,1.2c0.1,0.3,0.2,0.6,0.3,0.9l0.1,0.2c0.1,0.3,0.3,0.6,0.4,0.8
		c0.1,0.1,0.1,0.2,0.2,0.3c0.2,0.3,0.4,0.6,0.6,0.8l0.1,0.2c0.1,0.1,0.2,0.2,0.4,0.4L144,148l-2.3,0.6c-4.3-1.7-7.1-4-8.3-6.8
		c-1.3-3.2-0.1-6.1,0.1-6.5c0.9-0.9,1.9-1.8,2.8-2.7c2.7-2.6,5.3-5,7.3-7.1c8.2-8.7,14.3-19.4,14.3-19.5c0.1-0.3,0.1-0.6-0.2-0.8
		c-0.3-0.2-0.6-0.1-0.8,0.1c-0.1,0.1-7.2,9.5-15.6,17.9c-2,2-4.5,4.6-7,7.4c-2.9,3.1-5.9,6.3-8.7,9.1l-6.1,6.1
		c-0.6,0.6-1.4,1.4-2.1,2.2c-0.8,0.9-1.4,1.8-1.9,2.6c-0.3,0.5-0.6,1.1-0.8,1.6c-0.2,0.6-0.4,1.3-0.2,2.2c0.2,1.1,1.1,1.9,1.9,2.1
		c0.6,0.2,1.2,0.3,2,0.3c0,0,0.1,0,0.1,0c1.1,0,2.2-0.2,3.2-0.4c4-0.9,7.8-1.7,11.7-2.6l50.3-10.3c0.1,0,0.2,0,0.2,0
		c0.1,0,0.2-0.1,0.4-0.1l0.4-0.1c0.1,0,0.3-0.1,0.3-0.2c0,0,0,0,0,0c0.1-0.1,0.2-0.1,0.4-0.2l-0.2-0.5c0,0,0.2,0.5,0.2,0.5
		c1.5-0.7,2.9-1.5,4.3-2.3c0.1,0,0.1-0.1,0.2-0.1c0.2-0.1,0.3-0.2,0.5-0.3c0.3-0.1,0.5-0.3,0.8-0.4c0.3-0.2,0.7-0.4,1-0.6
		c0.4-0.2,0.9-0.5,1.3-0.7c0.5-0.3,1.1-0.6,1.6-0.9c0.6-0.3,1.2-0.7,1.8-1c0.7-0.4,1.4-0.8,2.1-1.2c0.8-0.4,1.5-0.9,2.3-1.3
		c0.8-0.5,1.7-0.9,2.5-1.4c0.9-0.5,1.8-1,2.7-1.5c1-0.5,2-1.1,2.9-1.6c1-0.6,2.1-1.2,3.1-1.7c1.1-0.6,2.2-1.2,3.3-1.8
		c1.2-0.6,2.3-1.3,3.5-1.9c1.2-0.7,2.4-1.3,3.6-2c1.3-0.7,2.5-1.4,3.8-2.1c1.3-0.7,2.6-1.4,3.9-2.2c1.3-0.7,2.7-1.5,4-2.2
		c1.4-0.8,2.8-1.5,4.1-2.3c1.4-0.8,2.8-1.6,4.2-2.4c1.4-0.8,2.9-1.6,4.3-2.4c1.5-0.8,2.9-1.6,4.4-2.4c1.5-0.8,3-1.7,4.5-2.5
		c1.5-0.8,3-1.7,4.5-2.5c1.5-0.8,3-1.7,4.6-2.5c1.5-0.9,3.1-1.7,4.6-2.6c1.5-0.9,3.1-1.7,4.6-2.6c1.5-0.9,3.1-1.7,4.6-2.6
		c1.5-0.9,3.1-1.7,4.6-2.6c1.5-0.9,3.1-1.7,4.6-2.6c1.5-0.9,3.1-1.7,4.6-2.6c1.5-0.8,3-1.7,4.6-2.5c1.5-0.8,3-1.7,4.5-2.5
		c1.5-0.8,3-1.7,4.5-2.5c1.5-0.8,2.9-1.6,4.4-2.5c1.4-0.8,2.9-1.6,4.3-2.4c1.4-0.8,2.8-1.6,4.3-2.4c1.4-0.8,2.8-1.5,4.2-2.3
		c1.3-0.7,2.7-1.5,4-2.2c1.3-0.7,2.6-1.5,3.9-2.2c1.3-0.7,2.5-1.4,3.8-2.1c1.2-0.7,2.4-1.4,3.7-2c1.2-0.6,2.3-1.3,3.5-1.9
		c1.1-0.6,2.2-1.2,3.3-1.9c1.1-0.6,2.1-1.2,3.2-1.8c1-0.6,2-1.1,3-1.7c0.9-0.5,1.9-1,2.8-1.5c0.9-0.5,1.7-1,2.6-1.4
		c0.8-0.4,1.6-0.9,2.4-1.3c0.7-0.4,1.4-0.8,2.1-1.2c0.6-0.4,1.3-0.7,1.9-1.1c0.5-0.3,1.1-0.6,1.6-0.9c0.5-0.3,0.9-0.5,1.4-0.8
		c0.9-0.5,1.9-0.9,2.7-1.6c0.4-0.3,0.6-0.7,0.9-1.1c0.3-0.4,0.4-0.8,0.5-1.2c0.1-0.3,0.2-0.6,0.3-0.9c0.3-0.8,0.5-1.6,0.8-2.4
		c0.6-1.9,1.2-3.8,1.8-5.6c0.4-1.4,0.9-2.8,1.3-4.2c0.1-0.2,0.1-0.4,0.2-0.6C375.6,24.6,375.6,24.4,375.5,24.3z M166.7,114.6
		c-2.8,0.3-5.5-0.3-6.8-3.2c-0.7-1.7-0.2-3.6,0.2-5.2c0.3-1,0.7-1.9,1.1-2.9c1.5-0.5,3-1.3,4.5-2.1c0.6-0.3,1.2-0.7,1.8-0.9
		c6.4-3.2,12.6-6.7,18.6-10c2.2-1.2,4.4-2.4,6.6-3.7c18.2-10,38.2-20.8,61-33L348.8,3l-2.5,12.8c-0.1,0-0.3,0-0.4,0
		c0,0-3.7,2-10.1,5.6l-158.4,89.2c-0.8,0.5-1.7,0.9-2.5,1.4c-1.1,0.6-2.3,1.1-3.5,1.5C170,113.9,168.3,114.4,166.7,114.6z
		 M363.7,9.3l7.8,15.5l-4.1,10.3l-9-5.2l-9.8-12.5l1.9-15.3l1.8,1c0.1,0,0.2,0,0.3,0L363.7,9.3z M181.7,137.9
		c-0.8-0.5-1.6-1.2-2-1.8c-0.9-1.3-0.7-2.9,0-4.2c0.9-1.5,2.3-2.5,3.8-3.4c4.4-2.4,8.8-4.5,13.1-7.1c4.6-2.7,9.3-5.4,14-8.1
		c4.4-2.5,8.8-4.9,13.2-7.3l133.7-71.9c0,0,6.3,4.3,6.3,4.3c-0.5,0.3-1,0.5-1.5,0.8c-1.4,0.8-2.8,1.5-4.1,2.3
		c-2.2,1.2-4.3,2.4-6.5,3.6c-2.9,1.6-5.7,3.2-8.6,4.8c-3.4,1.9-6.9,3.8-10.3,5.7c-3.9,2.2-7.8,4.3-11.7,6.5
		c-4.3,2.4-8.6,4.8-12.8,7.1c-4.5,2.5-9.1,5-13.6,7.6c-4.7,2.6-9.4,5.2-14.1,7.8c-4.7,2.6-9.5,5.3-14.2,7.9c-4.7,2.6-9.3,5.2-14,7.8
		c-4.5,2.5-9,5-13.5,7.5c-4.2,2.4-8.5,4.7-12.7,7.1c-3.9,2.1-7.7,4.3-11.6,6.4c-3.4,1.9-6.7,3.7-10.1,5.6c-2.8,1.5-5.5,3.1-8.3,4.6
		c-2.1,1.2-4.1,2.3-6.2,3.5c-1.3,0.7-2.5,1.4-3.8,2.1c-0.8,0.4-1.7,1.1-2.7,1.2C182.9,138.4,182.3,138.2,181.7,137.9z M175.9,113.7
		c1.9-1,3.8-2,5.7-3.1c1-0.6,2.1-1.2,3.1-1.7l108.6-59.5l44.3-24.2c4.8-2.6,8.1-4.4,9.4-5l6.6,9.8l-156.8,88.5c0,0-11,6.2-11,6.2
		c-1.6,0.9-3.2,1.6-4.9,2.3c-1.6,0.7-3.3,1.4-5.1,1.5c-2.2,0.1-4.8-0.9-6.6-2.2c-1.7-1.2-2.5-3.1-2.1-4.9c0.7-2.9,3.2-4.2,5.5-5.7
		C173.8,114.9,174.9,114.3,175.9,113.7z"/>
	<path class="st0" d="M108.2,153.8c0,0-0.8-0.2-2.2-0.8c-1.4-0.5-3.4-1.3-5.7-2.8c-1.2-0.8-2.4-1.7-3.1-3c-0.3-0.5-0.6-1.2-0.5-2.1
		c0.1-0.7,0.4-1.4,1-2.1c1.3-1.5,3-2.7,4.7-3.8l0.8-0.5c0.7-0.4,1.4-0.9,2.2-1.4c0.5-0.4,1-0.8,1.4-1.4c0.3-0.4,0.4-1,0.4-1.6
		c-0.1-0.4-0.3-0.9-0.8-1.3c-1.1-0.9-2.3-1.4-3.4-1.8l-0.2-0.1c-1.3-0.5-2.6-0.9-3.8-1.2c-2.2-0.6-4.6-1.2-7.9-2l-2.2-0.5
		c-4.8-1-9.7-2.1-14.8-3.6c-2.8-0.8-5.7-1.7-8.1-3.1c-0.8-0.6-1.1-0.9-1.1-1c-0.1-0.2-0.1-0.3,0.1-0.6c0.7-0.9,2-1.8,3.2-2.4
		c2.2-1.2,4.6-2.3,7-3.4l1.8-0.8c1.4-0.6,2.8-1.3,4.3-2.2l0.2-0.1c0.3-0.2,0.7-0.5,1.2-1.1c0.1-0.2,0.3-0.5,0.4-1.1
		c0-0.4,0-0.7-0.1-1c-0.1-0.4-0.4-0.7-0.5-0.8c-0.5-0.4-0.9-0.5-1.2-0.6l-0.2-0.1c-1-0.2-1.7-0.2-2.5-0.2l-0.4,0
		c-2.5,0-5,0.2-7.4,0.4c-0.8,0.1-1.6,0.1-2.4,0.2c-3.6,0.3-6.5,0.5-9.5,0.5c-2.9,0.1-6-0.1-9.2-0.4c-3.6-0.4-6.3-1-8.6-1.7
		c-0.6-0.2-1.1-0.4-1.5-0.6c0.2-0.1,0.4-0.2,0.7-0.3c2.4-1.1,5.3-1.7,7.7-2.3c2.1-0.5,4.2-0.9,6.3-1.2c3.2-0.6,6.3-1.1,9.3-2
		l0.4-0.1c0.5-0.2,1.1-0.4,1.9-0.8c0.2-0.1,0.4-0.3,0.5-0.4c0.1-0.1,0.4-0.4,0.5-0.6c0.1-0.1,0.1-0.2,0.2-0.4
		c0.1-0.1,0.1-0.2,0.2-0.5c0.1-0.5,0.1-1.1,0-1.6c-0.1-0.4-0.3-0.8-0.6-1.2c-0.2-0.2-0.3-0.3-0.5-0.5c-0.1-0.1-0.4-0.3-0.5-0.3
		c-0.6-0.3-1-0.4-1.3-0.5L64.2,91c-1.3-0.3-2.4-0.3-3.5-0.4l-0.3,0c-2.3-0.1-4.5-0.2-6.4-0.2c-3.8,0-7.2,0-10.3,0.1
		c-2.5,0.1-5.4,0.2-8,0.6c-1.3,0.2-5.3,0.3-4.1,2.7c2,3.8,8.9,2.8,12.2,2.6c0.7,0,1.4-0.1,2.2-0.1C43.7,97,41,97.8,38.3,99
		c-0.7,0.4-1.5,0.8-2.4,1.5c-0.4,0.4-0.9,0.8-1.3,1.6c-0.2,0.3-0.4,0.8-0.4,1.5c0,0.6,0.1,1.2,0.3,1.6c0.4,0.9,1,1.3,1.4,1.7
		c0.5,0.4,0.9,0.6,1.3,0.8c0.7,0.4,1.5,0.6,2.5,0.9c3.4,1,6.7,1.4,9.5,1.7c3.4,0.3,6.6,0.4,9.8,0.2c3.3-0.2,6.5-0.5,9.7-0.8l2.4-0.2
		c1.7-0.2,3.4-0.3,5.1-0.5c-0.3,0.2-0.6,0.3-0.9,0.4l-1.6,0.7c-2.4,1.1-4.9,2.3-7.2,3.7l-0.3,0.2c-1.3,0.8-2.7,1.7-3.9,3.3
		c-0.1,0.2-0.3,0.5-0.4,0.8l-0.1,0.2c-0.1,0.2-0.2,0.5-0.2,0.7c-0.1,0.7,0.1,1.5,0.4,2c0.6,1.1,1.5,1.6,2.2,2.1
		c2.8,1.6,5.6,2.4,8.3,3.1l0.7,0.2c5.1,1.3,10.1,2.3,14.9,3.2l2.3,0.4c3.2,0.6,5.7,1.2,7.9,1.7c1.1,0.3,2.4,0.6,3.6,1.1
		c1.1,0.4,2.2,0.8,3,1.4c0.2,0.2,0.2,0.3,0.1,0.4c-0.2,0.3-0.6,0.7-1,1c-0.6,0.5-1.3,0.9-2,1.4l-0.8,0.5c-1.7,1.1-3.6,2.5-5,4.2
		c-0.8,1-1.2,2-1.3,3c-0.1,1,0.2,2.1,0.8,3c1,1.6,2.4,2.6,3.7,3.4c2.4,1.5,4.6,2.2,6.1,2.8c1.4,0.5,2.2,0.7,2.3,0.7c0,0,0.1,0,0.1,0
		c0.3,0,0.5-0.2,0.5-0.4C108.7,154.2,108.5,153.9,108.2,153.8z"/>
</g>
<ellipse transform="matrix(0.874 -0.486 0.486 0.874 36.0635 177.3758)" class="st0" cx="360" cy="19.2" rx="2.4" ry="7.8"/>
<g>
</g>
<g>
</g>
<g>
</g>
<g>
</g>
<g>
</g>
<g>
</g>
</svg>
