<?xml version="1.0" encoding="utf-8"?>
<!-- Generator: Adobe Illustrator 19.1.0, SVG Export Plug-In . SVG Version: 6.00 Build 0)  -->
<svg version="1.1" id="Ebene_1" xmlns="http://www.w3.org/2000/svg" xmlns:xlink="http://www.w3.org/1999/xlink" x="0px" y="0px"
	 viewBox="0 0 178.3 168.1" style="enable-background:new 0 0 178.3 168.1;" xml:space="preserve">
<style type="text/css">
	.st0{fill:#4A0B2D;}
	.st1{fill:#680F3B;}
</style>
<g>
	<g>
		<path class="st0" d="M84.1,0C37.6,0,0,37.6,0,84.1s37.6,84.1,84.1,84.1c46.4,0,84.1-37.6,84.1-84.1S130.5,0,84.1,0z M119.8,104.1
			c6.3,6.4,6.3,6.3,0,12.8c-10.4,10.6-9,9.5-18.3,0.2c-5-5-7.2-18.2-7.2-18.2H84.1c0,0-14.6,14.8-21.3,22.1c-3.8,4.2-6.8,4-10.6,0
			c-11.3-11.9-11.6-9.1-0.1-20.6c5.2-5.2,10.5-10.2,16.6-16c-6.8-6.8-13.1-13.1-19.5-19.5c-7.3-7.3-7.3-7.3,0-14.6
			c1.2-1.2,2.6-2.4,3.7-3.7c3.3-4,6.3-3.4,9.6,0.2C69.2,53.9,84,68.9,84,68.9h10.2c0,0,5.3-15.7,11.5-22.4c3.5-3.8,6.3-3.5,9.7,0.1
			c12.5,12.8,11.7,9.6,0.6,21c-4.8,5-16.1,16.5-16.1,16.5S113.2,97.4,119.8,104.1z"/>
	</g>
	<g>
		<path class="st1" d="M94.3,0C47.9,0,10.2,37.6,10.2,84.1s37.6,84.1,84.1,84.1c46.4,0,84.1-37.6,84.1-84.1S140.7,0,94.3,0z
			 M130.1,104.1c6.3,6.4,6.3,6.3,0,12.8c-10.4,10.6-9,9.5-18.3,0.2c-5.6-5.6-11-11.5-17.4-18.2c-7.6,7.8-14.6,14.8-21.3,22.1
			c-3.8,4.2-6.8,4-10.6,0c-11.3-11.9-11.6-9.1-0.1-20.6c5.2-5.2,10.5-10.2,16.6-16c-6.8-6.8-13.1-13.1-19.5-19.5
			c-7.3-7.3-7.3-7.3,0-14.6c1.2-1.2,2.6-2.4,3.7-3.7c3.3-4,6.3-3.4,9.6,0.2c6.8,7.2,13.8,14.3,21.5,22.3c7.9-8.2,15-15.1,21.7-22.4
			c3.5-3.8,6.3-3.5,9.7,0.1c12.5,12.8,11.7,9.6,0.6,21c-4.8,5-14.6,14.8-14.6,14.8L110,84C110,84,123.4,97.4,130.1,104.1z"/>
	</g>
</g>
<g>
</g>
<g>
</g>
<g>
</g>
<g>
</g>
<g>
</g>
<g>
</g>
</svg>
