<?xml version="1.0" encoding="utf-8"?>
<!-- Generator: Adobe Illustrator 15.0.2, SVG Export Plug-In . SVG Version: 6.00 Build 0)  -->
<!DOCTYPE svg PUBLIC "-//W3C//DTD SVG 1.1//EN" "http://www.w3.org/Graphics/SVG/1.1/DTD/svg11.dtd">
<svg version="1.1" id="Layer_1" xmlns="http://www.w3.org/2000/svg" xmlns:xlink="http://www.w3.org/1999/xlink" x="0px" y="0px"
	 width="360px" height="360px" viewBox="0 0 360 360" enable-background="new 0 0 360 360" xml:space="preserve">
<path fill="#FFFFFF" d="M332.233,9.32H27.992c-10.44,0-18.876,8.437-18.876,18.876v304.248c0,10.439,8.436,18.876,18.876,18.876
	h163.795V218.89h-44.575v-51.607h44.575v-38.074c0-44.16,26.966-68.256,66.376-68.256c18.901,0,35.105,1.41,39.831,2.053v46.164
	l-27.312,0.025c-21.449,0-25.605,10.168-25.605,25.135v32.953h51.137l-6.68,51.607h-44.457V351.32h87.157
	c10.44,0,18.876-8.437,18.876-18.876V28.196C351.109,17.757,342.674,9.32,332.233,9.32"/>
</svg>
