<?xml version="1.0" encoding="utf-8"?>
<!-- Generator: Adobe Illustrator 19.1.0, SVG Export Plug-In . SVG Version: 6.00 Build 0)  -->
<svg version="1.1" id="Ebene_1" xmlns="http://www.w3.org/2000/svg" xmlns:xlink="http://www.w3.org/1999/xlink" x="0px" y="0px"
	 viewBox="0 0 258.4 69.2" style="enable-background:new 0 0 258.4 69.2;" xml:space="preserve">
<style type="text/css">
	.st0{fill:#A10E2F;}
</style>
<g>
	<path d="M125.3,11.9h7.6v2h-5.2v2.5h4.5v1.8h-4.5v4.5h-2.4V11.9z"/>
	<path d="M133.7,17.3c0.1-2,1.9-2.6,3.7-2.6c1.6,0,3.4,0.3,3.4,2.2V21c0,0.7,0.1,1.4,0.3,1.7h-2.2c-0.1-0.2-0.1-0.5-0.2-0.8
		c-0.7,0.7-1.7,1-2.6,1c-1.5,0-2.7-0.7-2.7-2.3c0-1.8,1.3-2.2,2.7-2.4c1.3-0.2,2.5-0.2,2.5-1c0-0.9-0.6-1.1-1.4-1.1
		c-0.8,0-1.3,0.3-1.4,1.2H133.7z M138.6,18.9c-0.4,0.3-1.1,0.3-1.8,0.5c-0.7,0.1-1.3,0.4-1.3,1.1c0,0.8,0.6,1,1.3,1
		c1.7,0,1.7-1.3,1.7-1.8V18.9z"/>
	<path d="M147.7,17.6c-0.1-0.9-0.7-1.3-1.6-1.3c-1.4,0-1.8,1.4-1.8,2.5c0,1.1,0.4,2.5,1.8,2.5c1,0,1.6-0.6,1.7-1.6h2.1
		c-0.3,2.1-1.7,3.2-3.8,3.2c-2.4,0-3.9-1.7-3.9-4c0-2.4,1.5-4.2,4-4.2c1.8,0,3.5,1,3.7,3H147.7z"/>
	<path d="M151.2,11.9h2.1V16h0c0.5-0.9,1.5-1.3,2.3-1.3c2.3,0,2.9,1.3,2.9,3.2v4.8h-2.1v-4.4c0-1.3-0.4-1.9-1.4-1.9
		c-1.2,0-1.7,0.6-1.7,2.2v4.1h-2.1V11.9z"/>
	<path d="M160.2,11.9h2.1V16h0c0.5-0.9,1.5-1.3,2.3-1.3c2.3,0,2.9,1.3,2.9,3.2v4.8h-2.1v-4.4c0-1.3-0.4-1.9-1.4-1.9
		c-1.2,0-1.7,0.6-1.7,2.2v4.1h-2.1V11.9z"/>
	<path d="M173,14.7c2.5,0,4,1.6,4,4.1c0,2.5-1.6,4.1-4,4.1c-2.4,0-4-1.6-4-4.1C169,16.3,170.5,14.7,173,14.7z M173,21.3
		c1.5,0,1.9-1.3,1.9-2.5c0-1.3-0.4-2.5-1.9-2.5c-1.4,0-1.9,1.3-1.9,2.5C171.1,20,171.5,21.3,173,21.3z"/>
	<path d="M183.7,17.6c-0.1-0.9-0.7-1.3-1.6-1.3c-1.4,0-1.8,1.4-1.8,2.5c0,1.1,0.4,2.5,1.8,2.5c1,0,1.6-0.6,1.7-1.6h2.1
		c-0.3,2.1-1.7,3.2-3.8,3.2c-2.4,0-3.9-1.7-3.9-4c0-2.4,1.5-4.2,4-4.2c1.8,0,3.5,1,3.7,3H183.7z"/>
	<path d="M187.2,11.9h2.1V16h0c0.5-0.9,1.5-1.3,2.3-1.3c2.3,0,2.9,1.3,2.9,3.2v4.8h-2.1v-4.4c0-1.3-0.4-1.9-1.4-1.9
		c-1.2,0-1.7,0.6-1.7,2.2v4.1h-2.1V11.9z"/>
	<path d="M197.9,20.2c0,0.9,0.8,1.3,1.6,1.3c0.6,0,1.4-0.2,1.4-1c0-0.6-0.9-0.9-2.4-1.2c-1.2-0.3-2.5-0.7-2.5-2.1
		c0-2,1.7-2.5,3.4-2.5c1.7,0,3.3,0.6,3.4,2.5h-2c-0.1-0.8-0.7-1.1-1.5-1.1c-0.5,0-1.2,0.1-1.2,0.7c0,0.8,1.2,0.9,2.4,1.2
		c1.3,0.3,2.5,0.7,2.5,2.2c0,2.1-1.8,2.7-3.6,2.7c-1.8,0-3.6-0.7-3.7-2.7H197.9z"/>
	<path d="M209.7,17.6c-0.1-0.9-0.7-1.3-1.6-1.3c-1.4,0-1.8,1.4-1.8,2.5c0,1.1,0.4,2.5,1.8,2.5c1,0,1.6-0.6,1.7-1.6h2.1
		c-0.3,2.1-1.7,3.2-3.8,3.2c-2.4,0-3.9-1.7-3.9-4c0-2.4,1.4-4.2,4-4.2c1.8,0,3.5,1,3.7,3H209.7z"/>
	<path d="M213.1,11.9h2.1V16h0c0.5-0.9,1.5-1.3,2.3-1.3c2.3,0,2.8,1.3,2.8,3.2v4.8h-2.1v-4.4c0-1.3-0.4-1.9-1.4-1.9
		c-1.2,0-1.7,0.6-1.7,2.2v4.1h-2.1V11.9z"/>
	<path d="M229.3,22.7h-2v-1.1h0c-0.5,0.9-1.5,1.3-2.4,1.3c-2.3,0-2.9-1.3-2.9-3.2v-4.8h2.1v4.4c0,1.3,0.4,1.9,1.4,1.9
		c1.2,0,1.7-0.7,1.7-2.2v-4.1h2.1V22.7z"/>
	<path d="M231.1,11.9h2.1v10.8h-2.1V11.9z"/>
	<path d="M236.7,19.3c0.1,1.4,0.7,2,1.9,2c0.9,0,1.6-0.5,1.7-1h1.9c-0.6,1.8-1.9,2.6-3.7,2.6c-2.5,0-4-1.7-4-4.1
		c0-2.3,1.6-4.1,4-4.1c2.7,0,3.9,2.2,3.8,4.6H236.7z M240.2,18c-0.2-1.1-0.7-1.7-1.7-1.7c-1.4,0-1.8,1.1-1.8,1.7H240.2z"/>
	<path d="M126.9,36.4c0,1.4,1.1,2,2.4,2c0.8,0,2.1-0.2,2.1-1.3c0-1.2-1.6-1.4-3.2-1.8c-1.6-0.4-3.2-1-3.2-3.1c0-2.2,2.1-3.3,4-3.3
		c2.2,0,4.3,1,4.3,3.5h-2.3c-0.1-1.3-1-1.6-2.1-1.6c-0.8,0-1.6,0.3-1.6,1.2c0,0.8,0.5,0.9,3.2,1.6c0.8,0.2,3.2,0.7,3.2,3.1
		c0,2-1.6,3.5-4.5,3.5c-2.4,0-4.6-1.2-4.6-3.8H126.9z"/>
	<path d="M134.9,34.6c0.1-2,1.9-2.6,3.7-2.6c1.6,0,3.4,0.3,3.4,2.2v4.1c0,0.7,0.1,1.4,0.3,1.7h-2.2c-0.1-0.2-0.1-0.5-0.1-0.8
		c-0.7,0.7-1.7,1-2.6,1c-1.5,0-2.7-0.7-2.7-2.3c0-1.8,1.3-2.2,2.7-2.4c1.3-0.2,2.5-0.2,2.5-1c0-0.9-0.6-1.1-1.4-1.1
		c-0.8,0-1.3,0.3-1.4,1.2H134.9z M139.8,36.2c-0.4,0.3-1.1,0.3-1.8,0.5c-0.7,0.1-1.3,0.4-1.3,1.1c0,0.8,0.6,1,1.3,1
		c1.7,0,1.7-1.3,1.7-1.8V36.2z"/>
	<path d="M143.6,29.2h2.1V40h-2.1V29.2z"/>
	<path d="M147.1,38.4l4.1-4.6h-3.8v-1.6h6.6v1.6l-4.1,4.6h4.4V40h-7.2V38.4z"/>
	<path d="M155.5,29.2h2.1v3.9h0c0.5-0.8,1.5-1.2,2.5-1.2c1.6,0,3.2,1.3,3.2,4.1c0,2.9-1.7,4.1-3.2,4.1c-1.1,0-2.1-0.3-2.6-1.2h0v1
		h-2V29.2z M159.4,33.6c-1.3,0-1.8,1.2-1.8,2.5c0,1.3,0.6,2.5,1.8,2.5s1.8-1.2,1.8-2.5C161.3,34.8,160.7,33.6,159.4,33.6z"/>
	<path d="M171.9,40h-2v-1.1h0c-0.5,0.9-1.5,1.3-2.4,1.3c-2.3,0-2.9-1.3-2.9-3.2v-4.8h2.1v4.4c0,1.3,0.4,1.9,1.4,1.9
		c1.2,0,1.7-0.6,1.7-2.2v-4.1h2.1V40z"/>
	<path d="M173.5,32.2h2v1.4h0c0.4-1,1.5-1.7,2.5-1.7c0.2,0,0.3,0,0.5,0.1v2c-0.2,0-0.5-0.1-0.8-0.1c-1.6,0-2.1,1.1-2.1,2.5V40h-2.1
		V32.2z"/>
	<path d="M187,39.5c0,1.3-0.5,3.5-4,3.5c-1.5,0-3.3-0.7-3.4-2.5h2.1c0.2,0.8,0.8,1.1,1.6,1.1c1.2,0,1.7-0.8,1.7-1.9v-1h0
		c-0.5,0.8-1.4,1.2-2.3,1.2c-2.3,0-3.3-1.8-3.3-3.9c0-2,1.2-3.9,3.4-3.9c1,0,1.8,0.3,2.3,1.3h0v-1h2V39.5z M185,36
		c0-1.3-0.4-2.4-1.8-2.4c-1.2,0-1.7,1.1-1.7,2.2c0,1.1,0.4,2.3,1.7,2.3C184.4,38.2,185,37.1,185,36z"/>
	<path d="M193.1,29.2h1v6.7c0,2.5,1.2,3.5,3.2,3.5c2,0,3.2-1,3.2-3.5v-6.7h1v6.9c0,2.2-1.2,4.1-4.2,4.1c-3,0-4.2-1.9-4.2-4.1V29.2z"
		/>
	<path d="M203.2,32.2h1v1.3h0c0.3-0.9,1.4-1.6,2.5-1.6c2.2,0,2.9,1.1,2.9,3v5h-1v-4.9c0-1.3-0.4-2.4-2-2.4c-1.5,0-2.4,1.1-2.4,2.7
		V40h-1V32.2z"/>
	<path d="M211.3,29.2h1v1.5h-1V29.2z M211.3,32.2h1V40h-1V32.2z"/>
	<path d="M213.2,32.2h1.1l2.4,6.8h0l2.4-6.8h1l-2.9,7.8h-1L213.2,32.2z"/>
	<path d="M221.4,36.4c0,1.4,0.7,3.1,2.6,3.1c1.4,0,2.1-0.8,2.4-2h1c-0.4,1.8-1.4,2.8-3.4,2.8c-2.5,0-3.5-1.9-3.5-4.1
		c0-2.1,1-4.1,3.5-4.1c2.5,0,3.5,2.2,3.4,4.4H221.4z M226.5,35.6c0-1.4-0.9-2.8-2.5-2.8c-1.6,0-2.4,1.4-2.6,2.8H226.5z"/>
	<path d="M228.8,32.2h0.9V34h0c0.5-1.3,1.5-2,2.9-1.9v1c-1.7-0.1-2.9,1.2-2.9,2.8V40h-1V32.2z"/>
	<path d="M238.2,34.5c0-1.2-1-1.7-2-1.7c-0.8,0-1.8,0.3-1.8,1.3c0,0.8,1,1.1,1.6,1.3l1.3,0.3c1.1,0.2,2.2,0.8,2.2,2.2
		c0,1.7-1.7,2.3-3.1,2.3c-1.8,0-3-0.8-3.2-2.7h1c0.1,1.3,1,1.9,2.3,1.9c0.9,0,2.1-0.4,2.1-1.5c0-0.9-0.8-1.2-1.7-1.4l-1.2-0.3
		c-1.2-0.3-2.2-0.8-2.2-2.1c0-1.6,1.6-2.2,2.9-2.2c1.6,0,2.8,0.8,2.9,2.5H238.2z"/>
	<path d="M240.8,29.2h0.9v1.5h-0.9V29.2z M240.8,32.2h0.9V40h-0.9V32.2z"/>
	<path d="M245.2,32.2h1.6V33h-1.6v5.3c0,0.6,0.1,1,0.8,1c0.3,0,0.5,0,0.8,0v0.8c-0.3,0-0.6,0-0.8,0c-1.3,0-1.7-0.4-1.7-1.8V33h-1.4
		v-0.8h1.4v-2.3h1V32.2z"/>
	<path d="M247.6,32.2h1l2.6,6.6l2.4-6.6h0.9l-3.4,9c-0.5,1.3-0.9,1.7-2,1.7c-0.4,0-0.6,0-0.7-0.1V42c0.2,0,0.4,0.1,0.6,0.1
		c0.8,0,1-0.5,1.4-1.2l0.3-0.9L247.6,32.2z"/>
	<path d="M132.2,53.4c0,2.2-1.3,4.1-3.7,4.1c-2.4,0-3.7-1.9-3.7-4.1c0-2.2,1.3-4.1,3.7-4.1C130.9,49.3,132.2,51.2,132.2,53.4z
		 M125.7,53.4c0,1.7,0.9,3.3,2.7,3.3c1.8,0,2.7-1.7,2.7-3.3c0-1.7-0.9-3.3-2.7-3.3C126.6,50.1,125.7,51.8,125.7,53.4z"/>
	<path d="M136.3,50.3h-1.5v7h-1v-7h-1.3v-0.8h1.3v-0.7c0-1.3,0.4-2.3,1.9-2.3c0.3,0,0.5,0,0.8,0.1v0.8c-0.3,0-0.5-0.1-0.7-0.1
		c-1.1,0-1,0.7-1,1.5v0.7h1.5V50.3z"/>
	<path d="M144.8,46.5h1.2l4.2,10.8h-1.1l-1.3-3.4h-4.9l-1.3,3.4h-1.1L144.8,46.5z M143.2,53.1h4.2l-2.1-5.5L143.2,53.1z"/>
	<path d="M151.1,49.5h0.9V51h0c0.4-1.1,1.5-1.7,2.8-1.7c2.4,0,3.5,1.9,3.5,4.1c0,2.2-1.1,4.1-3.5,4.1c-1.2,0-2.3-0.6-2.7-1.7h0v4.4
		h-1V49.5z M154.8,50.1c-2.1,0-2.7,1.6-2.7,3.3c0,1.6,0.7,3.3,2.7,3.3c1.8,0,2.6-1.7,2.6-3.3C157.3,51.8,156.6,50.1,154.8,50.1z"/>
	<path d="M159.7,49.5h0.9V51h0c0.4-1.1,1.5-1.7,2.8-1.7c2.4,0,3.5,1.9,3.5,4.1c0,2.2-1.1,4.1-3.5,4.1c-1.2,0-2.3-0.6-2.7-1.7h0v4.4
		h-0.9V49.5z M163.4,50.1c-2.1,0-2.7,1.6-2.7,3.3c0,1.6,0.7,3.3,2.7,3.3c1.8,0,2.6-1.7,2.6-3.3C165.9,51.8,165.2,50.1,163.4,50.1z"
		/>
	<path d="M168.3,46.5h1v10.8h-1V46.5z"/>
	<path d="M171,46.5h1v1.5h-1V46.5z M171,49.5h1v7.8h-1V49.5z"/>
	<path d="M174.4,53.7c0,1.4,0.7,3.1,2.6,3.1c1.4,0,2.1-0.8,2.4-2h1c-0.4,1.8-1.4,2.8-3.4,2.8c-2.5,0-3.5-1.9-3.5-4.1
		c0-2.1,1-4.1,3.5-4.1c2.5,0,3.5,2.2,3.4,4.4H174.4z M179.4,52.9c0-1.4-0.9-2.8-2.5-2.8c-1.6,0-2.4,1.4-2.6,2.8H179.4z"/>
	<path d="M188.5,57.3h-0.9v-1.5h0c-0.4,1-1.6,1.7-2.8,1.7c-2.4,0-3.5-1.9-3.5-4.1c0-2.2,1.1-4.1,3.5-4.1c1.2,0,2.3,0.6,2.7,1.7h0
		v-4.5h1V57.3z M184.8,56.7c2,0,2.7-1.7,2.7-3.3c0-1.6-0.7-3.3-2.7-3.3c-1.8,0-2.6,1.7-2.6,3.3C182.3,55,183,56.7,184.8,56.7z"/>
	<path d="M195.2,53.8c0,2.2,1.6,2.9,3.5,2.9c1.1,0,2.9-0.6,2.9-2.2c0-1.2-1.2-1.7-2.2-1.9l-2.4-0.6c-1.3-0.3-2.4-0.9-2.4-2.6
		c0-1.1,0.7-3,3.7-3c2.1,0,4,1.2,4,3.4h-1c-0.1-1.6-1.4-2.5-2.9-2.5c-1.4,0-2.7,0.5-2.7,2.1c0,1,0.8,1.4,1.6,1.6l2.6,0.7
		c1.5,0.4,2.8,1.1,2.8,2.8c0,0.7-0.3,3.1-4.1,3.1c-2.6,0-4.4-1.1-4.3-3.8H195.2z"/>
	<path d="M209.5,52c-0.3-1.2-1-1.9-2.2-1.9c-1.8,0-2.7,1.7-2.7,3.3c0,1.7,0.9,3.3,2.7,3.3c1.2,0,2.1-0.9,2.3-2.2h1
		c-0.3,1.9-1.5,3-3.2,3c-2.4,0-3.7-1.9-3.7-4.1c0-2.2,1.3-4.1,3.7-4.1c1.7,0,2.9,0.9,3.2,2.7H209.5z"/>
	<path d="M211.9,46.5h0.9v1.5h-0.9V46.5z M211.9,49.5h0.9v7.8h-0.9V49.5z"/>
	<path d="M215.2,53.7c0,1.4,0.7,3.1,2.6,3.1c1.4,0,2.1-0.8,2.4-2h1c-0.4,1.8-1.4,2.8-3.4,2.8c-2.5,0-3.5-1.9-3.5-4.1
		c0-2.1,1-4.1,3.5-4.1c2.5,0,3.5,2.2,3.4,4.4H215.2z M220.2,52.9c0-1.4-0.9-2.8-2.5-2.8c-1.6,0-2.4,1.4-2.6,2.8H220.2z"/>
	<path d="M222.5,49.5h1v1.3h0c0.3-0.9,1.4-1.6,2.5-1.6c2.2,0,2.9,1.1,2.9,3v5h-1v-4.9c0-1.3-0.4-2.4-2-2.4c-1.5,0-2.4,1.1-2.4,2.7
		v4.5h-1V49.5z"/>
	<path d="M236.1,52c-0.3-1.2-1-1.9-2.2-1.9c-1.8,0-2.7,1.7-2.7,3.3c0,1.7,0.9,3.3,2.7,3.3c1.2,0,2.1-0.9,2.3-2.2h1
		c-0.3,1.9-1.5,3-3.2,3c-2.4,0-3.7-1.9-3.7-4.1c0-2.2,1.3-4.1,3.7-4.1c1.7,0,2.9,0.9,3.2,2.7H236.1z"/>
	<path d="M239,53.7c0,1.4,0.7,3.1,2.6,3.1c1.4,0,2.1-0.8,2.4-2h1c-0.4,1.8-1.4,2.8-3.4,2.8c-2.5,0-3.5-1.9-3.5-4.1
		c0-2.1,1-4.1,3.5-4.1c2.5,0,3.5,2.2,3.4,4.4H239z M244.1,52.9c0-1.4-0.9-2.8-2.5-2.8c-1.6,0-2.4,1.4-2.6,2.8H244.1z"/>
	<path d="M251.1,51.8c0-1.2-0.9-1.7-2-1.7c-0.8,0-1.8,0.3-1.8,1.3c0,0.8,1,1.1,1.6,1.3l1.3,0.3c1.1,0.2,2.2,0.8,2.2,2.2
		c0,1.7-1.7,2.3-3.1,2.3c-1.8,0-3.1-0.8-3.2-2.7h1c0.1,1.3,1,1.9,2.3,1.9c0.9,0,2.1-0.4,2.1-1.5c0-0.9-0.8-1.2-1.7-1.4l-1.2-0.3
		c-1.2-0.3-2.2-0.8-2.2-2.1c0-1.6,1.6-2.2,2.9-2.2c1.6,0,2.8,0.8,2.9,2.5H251.1z"/>
</g>
<path d="M8.2,27.8H4v-2.7h4.2v-1.4c0-4.6,2.4-6.5,5.9-6.5h6.2v2.7h-6c-2.4,0-3.4,1.4-3.4,3.1v2.1h9.4v2.7h-9.4v17.1H8.2V27.8z"/>
<path d="M22.4,17.2h2.7v11.6h0.1c1-3,3.1-3.7,6.5-3.7h3.9c5.1,0,6.7,3.1,6.7,6.6v13.2h-2.7V32.5c0-2.9-0.7-4.7-5.9-4.7h-0.7
	c-6.3,0-7.8,1.5-7.8,6v11.1h-2.7V17.2z"/>
<g>
	<g>
		<path class="st0" d="M47.5,39.1c0,2.4,1.1,3.4,4.2,3.4H58c4.4,0,5.9-0.2,5.9-3.1v-0.2c0-1.9-0.5-2.9-4-2.9h-9.1
			c-3,0-4.7-0.8-5.4-2.7c0,0.3,0,0.6,0,0.9c0,1.2,0.1,2.4,0.2,3.6h2V39.1z M79.9,0C63.5,0,49.8,11.4,46.2,26.7
			c1.2-1.1,3.5-1.6,7.7-1.6h4.5c6.7,0,7.6,2.1,7.6,4.9v1h-2.8v-0.2c0-3-1.8-3.1-5-3.1h-5.2c-4.2,0-5.2,0.5-5.2,2.7v0.7
			c0,1.6,0.5,2.5,3.6,2.5h7.8c4.4,0,7.5,0.5,7.5,5.8v0.1c0,5.5-4.5,5.7-8.2,5.7h-5.4c-2.5,0-5,0-6.6-1.1
			c4.1,14.5,17.5,25.1,33.3,25.1c19.1,0,34.6-15.5,34.6-34.6C114.5,15.5,99,0,79.9,0z"/>
	</g>
</g>
<g>
</g>
<g>
</g>
<g>
</g>
<g>
</g>
<g>
</g>
<g>
</g>
</svg>
