<?xml version="1.0" encoding="utf-8"?>
<!-- Generator: Adobe Illustrator 19.1.0, SVG Export Plug-In . SVG Version: 6.00 Build 0)  -->
<svg version="1.1" id="Ebene_1" xmlns="http://www.w3.org/2000/svg" xmlns:xlink="http://www.w3.org/1999/xlink" x="0px" y="0px"
	 viewBox="0 0 29.5 28.8" style="enable-background:new 0 0 29.5 28.8;" xml:space="preserve">
<style type="text/css">
	.st0{fill:#00A19A;}
	.st1{fill:#E2DFDC;}
	.st2{fill:#7A685F;}
	.st3{fill:#917F76;}
	.st4{fill:#4A0B2D;}
	.st5{fill:#00786E;}
	.st6{fill:#680F3B;}
	.st7{fill:#3C3C3B;}
	.st8{fill:#DADADA;}
	.st9{fill:#FFFFFF;}
	.st10{fill:none;stroke:#000000;stroke-width:3;stroke-miterlimit:10;}
	.st11{fill:none;stroke:#917F76;stroke-width:3;stroke-linecap:round;stroke-miterlimit:10;}
	.st12{fill:none;stroke:#917F76;stroke-width:3;stroke-miterlimit:10;}
	.st13{fill:#2E2B2C;}
	.st14{fill:#D6D5D6;}
	.st15{fill:#DCD5D2;}
	.st16{fill:url(#SVGID_1_);}
	.st17{fill:url(#SVGID_2_);}
	.st18{fill:url(#SVGID_3_);}
	.st19{fill:url(#SVGID_4_);}
	.st20{fill:url(#SVGID_5_);}
	.st21{fill:url(#SVGID_6_);}
	.st22{fill:url(#SVGID_7_);}
	.st23{clip-path:url(#SVGID_9_);}
	.st24{fill:url(#SVGID_10_);}
	.st25{fill:url(#SVGID_11_);}
	.st26{fill:url(#SVGID_12_);}
	.st27{fill:url(#SVGID_13_);}
	.st28{fill:url(#SVGID_14_);}
	.st29{fill:url(#SVGID_15_);}
	.st30{fill:#4A0B2D;stroke:#4A0B2D;stroke-width:2;stroke-miterlimit:10;}
	.st31{fill:#F7F6F6;}
	.st32{fill:#B2B2B2;}
	.st33{fill:#7A685F;stroke:#7A685F;stroke-linecap:round;stroke-linejoin:round;stroke-miterlimit:10;}
	.st34{fill:#49122D;}
	.st35{fill:#DCD7CD;}
	.st36{fill:#E2DFDC;stroke:#4A0B2D;stroke-width:2;stroke-miterlimit:10;}
	.st37{fill:#EFE9DC;}
</style>
<g>
	<g>
		<path class="st37" d="M29.5,4.3c0,0.8-0.6,1.4-1.4,1.4H1.4C0.6,5.8,0,5.1,0,4.3V1.4C0,0.6,0.6,0,1.4,0h26.7c0.8,0,1.4,0.6,1.4,1.4
			V4.3z"/>
	</g>
	<g>
		<path class="st37" d="M29.5,15.8c0,0.8-0.6,1.4-1.4,1.4H1.4c-0.8,0-1.4-0.6-1.4-1.4v-2.9c0-0.8,0.6-1.4,1.4-1.4h26.7
			c0.8,0,1.4,0.6,1.4,1.4V15.8z"/>
	</g>
	<g>
		<path class="st37" d="M29.5,27.3c0,0.8-0.6,1.4-1.4,1.4H1.4c-0.8,0-1.4-0.6-1.4-1.4v-2.9C0,23.6,0.6,23,1.4,23h26.7
			c0.8,0,1.4,0.6,1.4,1.4V27.3z"/>
	</g>
</g>
</svg>
