<?xml version="1.0" encoding="utf-8"?>
<!-- Generator: Adobe Illustrator 19.1.0, SVG Export Plug-In . SVG Version: 6.00 Build 0)  -->
<svg version="1.1" id="Ebene_1" xmlns="http://www.w3.org/2000/svg" xmlns:xlink="http://www.w3.org/1999/xlink" x="0px" y="0px"
	 viewBox="0 0 178.3 168.1" style="enable-background:new 0 0 178.3 168.1;" xml:space="preserve">
<style type="text/css">
	.st0{fill:#00786E;}
	.st1{fill:#00A19A;}
</style>
<g>
	<g>
		<path class="st0" d="M84.1-0.3C37.6-0.3,0,37.4,0,83.8c0,46.4,37.6,84.1,84.1,84.1s84.1-37.6,84.1-84.1
			C168.1,37.4,130.5-0.3,84.1-0.3z M129.1,69.9c-12.2,16.9-24.2,33.8-36.3,50.7c-6.2,8.6-6.2,8.7-13.7,1.5
			C67.6,111,56.2,99.9,44.6,89c-3.9-3.6-3.8-6.3,0-10.1c11.2-11,9.1-9.9,19.3-0.4c6.4,5.9,19.8,18.7,19.8,18.7h10.2
			c0,0,7.2-24.2,15.1-35.1c2.8-3.9,5.8-7.8,8.6-11.8c1.9-2.7,4.1-3.3,6.9-1.3C139,59.1,138.8,56.3,129.1,69.9z"/>
	</g>
	<g>
		<path class="st1" d="M94.3-0.3c-46.4,0-84.1,37.6-84.1,84.1c0,46.4,37.6,84.1,84.1,84.1s84.1-37.6,84.1-84.1
			C178.3,37.4,140.7-0.3,94.3-0.3z M139.3,69.9c-12.2,16.9-24.2,33.8-36.3,50.7c-6.2,8.6-6.2,8.7-13.7,1.5
			C77.8,111,66.4,99.9,54.8,89c-3.9-3.6-3.8-6.3,0-10.1c11.2-11,9.1-9.9,19.3-0.4c6.4,5.9,12.7,12,19.8,18.7
			C102.7,85,111,73.5,119.3,62c2.8-3.9,5.8-7.8,8.6-11.8c1.9-2.7,4.1-3.3,6.9-1.3C149.2,59.1,149,56.3,139.3,69.9z"/>
	</g>
</g>
<g>
</g>
<g>
</g>
<g>
</g>
<g>
</g>
<g>
</g>
<g>
</g>
</svg>
