<?xml version="1.0" encoding="utf-8"?>
<!-- Generator: Adobe Illustrator 19.1.0, SVG Export Plug-In . SVG Version: 6.00 Build 0)  -->
<svg version="1.1" id="Ebene_1" xmlns="http://www.w3.org/2000/svg" xmlns:xlink="http://www.w3.org/1999/xlink" x="0px" y="0px"
	 viewBox="0 0 409.1 156.9" style="enable-background:new 0 0 409.1 156.9;" xml:space="preserve">
<style type="text/css">
	.st0{fill:#4A0B2D;}
</style>
<g>
	<path class="st0" d="M348.1,10.4c0,0-0.1,4-4.8,13.5c-4.8,9.5-14.1,24.6-24.3,39.8c-5.1,7.6-10.9,15.7-17.6,23.8
		c-6.8,8.1-14.3,16.3-23.2,23.8c-8.8,7.5-18.8,14.6-30.4,19.3c-5.7,2.3-11.8,4.2-18.1,5.1c-1.6,0.3-3.2,0.5-4.8,0.5
		c-1.6,0.1-3.1,0.3-4.9,0.2l-9.1-0.2c-12.5-0.8-24.9-3.1-36.5-7.5c-11.6-4.4-21.9-11.1-30.8-18.6c-8.9-7.5-16.1-16.1-23-23.9
		c-3.4-3.9-6.8-7.6-10.2-11.1c-3.4-3.5-6.7-6.9-9.9-10.2C88,51.6,77.6,40.6,69.5,33.8c-4-3.4-8.6-6.2-11-7.6
		c-1.2-0.8-2.3-1.3-2.9-1.6c-0.6-0.4-1.1-1.2-1.1-1.2s1.2-0.5,1.9-0.2c0.7,0.3,3.6,2.3,4.8,3c2.6,1.3,4.9,3.4,9.2,6.5
		c8.6,6.3,20,16.5,33.1,29.1c3.3,3.1,6.8,6.3,10.3,9.7c3.6,3.4,7.2,7.1,10.8,10.9c7.2,7.6,14.5,15.6,23.1,22.6
		c8.6,7,18.4,12.9,29.2,17c10.8,4.1,22.5,6.2,34.2,6.8l9.1,0.3c1.2,0,2.8-0.1,4.2-0.2c1.4,0,2.8-0.2,4.3-0.4
		c5.7-0.7,11.2-2.4,16.5-4.5c10.6-4.3,20.3-10.6,28.9-17.7c8.6-7,16.3-14.8,23.2-22.4c6.8-7.7,13-15.4,18.3-22.6
		c10.7-14.6,18.9-27.3,24.2-36.5C349.7,4.7,348.1,10.4,348.1,10.4z"/>
	<path class="st0" d="M54.5,24.3c0,0,3.1-0.7,11.1-0.3c8.1,0.4,22.7,1.5,36.5,2.4c13.8,0.8,30,1.8,47.2,3.1
		c8.6,0.7,17.5,1.2,26.5,1.6c9,0.4,18.2,0.5,27.4,0.4c9.2,0,18.3-0.2,27.4-0.7c9-0.5,17.9-1.1,26.4-1.9c8.5-0.9,16.8-1.8,24.6-3
		c3.9-0.5,7.7-1.2,11.3-1.9c3.7-0.6,7.2-1.2,10.6-2c6.8-1.3,12.9-2.8,18.4-4.1c5.4-1.4,10.1-2.8,14-3.8c7.7-2.5,12.1-3.8,12.1-3.8
		s4.3,0.4-8.9,4.6c-3.8,1.4-11.2,3.7-16.5,5.6c-5.4,1.8-11.4,3.8-18.2,5.5c-3.4,1-6.9,1.8-10.5,2.7c-3.7,0.8-7.5,1.7-11.4,2.4
		c-7.8,1.6-16.2,3-24.8,4c-8.7,1.1-17.6,2.1-26.8,2.6c-9.1,0.6-18.4,0.9-27.7,1c-9.3,0-18.6-0.2-27.7-0.7
		c-9.2-0.4-18.1-1.3-26.7-2.2c-17.2-1.8-33.3-3.6-47-5.3c-13.8-1.6-27.2-3-35.2-4.1C58.5,25.3,54.5,24.3,54.5,24.3z"/>
	<path class="st0" d="M55.3,37.5c-1.7,0.2-1.8-3.4-1.9-4.5c-0.2-3.8-0.2-7.6,0.8-11.3c0.5-2,1.3-4,2.5-5.8c0.8-1.2,1.5-2.7,2.7-3.6
		c0.4-0.3,1.5-1,2.1-0.6c0.7,0.6-0.2,1.8-0.6,2.4c-4,6.1-4.2,13.7-4.5,20.8c0,0.6-0.1,1.5-0.3,2C55.9,37.2,55.6,37.4,55.3,37.5z"/>
	<path class="st0" d="M339.8-0.9c0.2-0.2,0.5-0.3,1,0c0.6,0.3,1.1,1,1.6,1.5c1.3,1.2,2.7,2.8,4,4.6c1.3,1.8,2.6,3.9,3.6,6
		c1.6,3.3,2.8,6.8,3.4,10.4c0.1,0.5,0.1,0.9,0,1.4s-0.4,0.9-0.9,1c-0.5,0.1-0.9-0.2-1.2-0.5c-1-1.2-1.3-3.2-1.9-4.7
		c-0.8-1.9-1.7-4-2.7-6c-0.9-2-2-4-3-5.9c-1-1.8-2.1-3.5-3-5c-0.4-0.6-0.7-1.1-1-1.7C339.7-0.2,339.6-0.7,339.8-0.9z"/>
	<path class="st0" d="M157.8,138.2c0,0,1.5,1.1,4.4,2.6c1.4,0.8,3.2,1.7,5.2,2.7c2,1,4.4,2,7,3c2.5,1.1,5.4,1.9,8.4,2.9
		c3.1,0.7,6.3,1.7,9.7,2.2c1.7,0.3,3.4,0.6,5.2,0.9c1.8,0.2,3.5,0.3,5.3,0.5l2.7,0.3l2.7,0l5.5,0.1c3.7-0.1,7.3-0.5,10.9-0.8
		c3.6-0.6,7.1-1.2,10.5-1.8c3.3-0.9,6.6-1.7,9.6-2.5c3.1-0.8,5.8-2,8.5-2.9c2.6-0.9,5.1-1.7,7.1-2.7c2.1-0.9,3.9-1.7,5.4-2.4
		c3-1.3,4.7-2,4.7-2s-1.6,1-4.4,2.7c-1.4,0.8-3.1,1.8-5.1,3c-1.9,1.2-4.3,2.3-6.9,3.4c-2.6,1.1-5.3,2.5-8.4,3.5
		c-3.1,1-6.3,2.1-9.7,3.1c-3.5,0.7-7.1,1.5-10.7,2.1c-3.7,0.3-7.5,0.8-11.3,0.9l-5.7-0.1l-2.8-0.1l-2.8-0.3
		c-1.9-0.2-3.7-0.4-5.5-0.7c-1.8-0.3-3.6-0.7-5.3-1.1c-3.5-0.6-6.7-1.9-9.8-2.8c-3-1.2-5.9-2.2-8.4-3.5c-1.3-0.6-2.5-1.2-3.6-1.8
		c-1.1-0.7-2.2-1.3-3.2-1.9c-2-1.2-3.6-2.3-5-3.3C159.1,139.5,157.8,138.2,157.8,138.2z"/>
	<path class="st0" d="M101.3,62.5c5.8,0.4,11.6,0.9,17.4,1.3l17.4,1.5l34.8,3.2l-1.7,1.2l1.9-9.8l1.2-6.1l1.9,6l3.1,9.8l-1.6-1.2
		c12.4-0.5,24.9-1.4,37.3-2.3c12.4-0.8,24.9-1.8,37.2-3.1l9.3-1c3.1-0.3,6.2-0.6,9.3-1c6.2-0.7,12.4-1.5,18.5-2.4
		c3.1-0.4,6.2-0.9,9.2-1.4c3.1-0.5,6.2-0.9,9.2-1.5c3.1-0.6,6.1-1.1,9.2-1.7l9.1-2l-9,2.6c-3,0.8-6.1,1.5-9.1,2.3
		c-3,0.8-6.1,1.4-9.2,2c-3.1,0.7-6.1,1.3-9.2,1.8c-6.2,1.1-12.3,2.1-18.5,3c-6.2,0.9-12.4,1.8-18.6,2.4c-12.4,1.4-24.9,2.6-37.3,3.6
		c-6.2,0.5-12.5,0.8-18.7,1.2c-6.2,0.3-12.5,0.6-18.7,0.8l-1.3,0l-0.4-1.2l-3-9.8l3.1-0.2l-2,9.8l-0.3,1.4l-1.4-0.2L136,67.3
		L118.7,65C112.9,64.2,107.1,63.4,101.3,62.5z"/>
	<path class="st0" d="M290.6,95.2c0,0-1.4-0.5-3.9-1.3c-2.5-0.9-6-2-10.3-3.3c-4.2-1.4-9.3-2.7-14.6-4c-5.4-1.3-11.2-2.5-17-3.1
		c-5.8-0.7-11.7-0.8-17-0.1c-2.6,0.4-5.2,1-7.5,1.9c-1.2,0.4-2.3,0.9-3.2,1.5c-1,0.5-2,1.1-2.8,1.8c-0.9,0.6-1.6,1.3-2.3,2
		c-0.8,0.6-1.4,1.3-1.9,2c-1.2,1.3-1.9,2.7-2.6,3.8c-1.2,2.3-1.8,3.7-1.8,3.7s0.1-0.4,0.3-1c0.2-0.7,0.4-1.7,0.9-2.9
		c0.6-1.2,1.1-2.8,2.2-4.3c0.9-1.6,2.3-3.3,4.1-4.8c0.9-0.8,1.8-1.6,2.9-2.2c1-0.7,2.2-1.3,3.4-1.9c2.4-1.2,5.1-2,8-2.6
		c2.9-0.5,5.8-0.9,8.8-0.8c3-0.1,6.1,0.2,9.1,0.4c3,0.4,6,0.9,8.9,1.5c2.9,0.6,5.7,1.4,8.5,2.1c5.4,1.6,10.3,3.5,14.5,5.2
		c4.2,1.7,7.5,3.4,9.9,4.6C289.3,94.5,290.6,95.2,290.6,95.2z"/>
	<path class="st0" d="M212.5,89.4c-0.1,0-0.9-0.6-2.7-1.6c-0.9-0.4-2-1-3.4-1.4c-1.3-0.5-2.9-0.9-4.6-1.4c-1.7-0.4-3.6-0.8-5.6-1
		c-2-0.3-4.2-0.3-6.4-0.4c-2.2,0.1-4.5,0.2-6.8,0.5c-2.3,0.4-4.7,0.6-7,1.3c-2.3,0.6-4.6,1.1-6.8,2c-2.2,0.8-4.4,1.5-6.5,2.5
		c-2,1-4.1,1.7-5.9,2.7c-1.8,1-3.5,1.9-5.1,2.8c-3.2,1.7-5.6,3.6-7.4,4.7c-1.8,1.2-2.8,1.8-2.8,1.8s1-0.7,2.7-1.9
		c1.8-1.2,4.1-3.1,7.2-5c1.6-0.9,3.2-2,5-3c1.8-1.1,3.8-2,5.8-3c2-1.1,4.2-1.9,6.4-2.8c2.2-1,4.5-1.7,6.9-2.3
		c2.3-0.8,4.7-1.1,7.1-1.6c2.4-0.5,4.8-0.6,7.1-0.8c2.3,0,4.5-0.1,6.7,0.1c2.1,0.1,4.1,0.5,6,0.8c1.8,0.4,3.5,0.8,4.9,1.3
		c1.5,0.4,2.7,1,3.7,1.4c1,0.5,1.8,0.9,2.3,1.2c0.5,0.3,0.8,0.5,0.8,0.5L212.5,89.4z"/>
</g>
<g>
</g>
<g>
</g>
<g>
</g>
<g>
</g>
<g>
</g>
<g>
</g>
</svg>
